<?xml version="1.0" encoding="UTF-8" standalone="no"?>
<svg
   version="1.2"
   viewBox="0 0 1000 1001"
   width="1000"
   height="1001"
   id="svg15"
   sodipodi:docname="Reuters Symbol (2024).svg"
   inkscape:version="1.3.2 (091e20e, 2023-11-25, custom)"
   xml:space="preserve"
   xmlns:inkscape="http://www.inkscape.org/namespaces/inkscape"
   xmlns:sodipodi="http://sodipodi.sourceforge.net/DTD/sodipodi-0.dtd"
   xmlns="http://www.w3.org/2000/svg"
   xmlns:svg="http://www.w3.org/2000/svg"
   xmlns:rdf="http://www.w3.org/1999/02/22-rdf-syntax-ns#"
   xmlns:cc="http://creativecommons.org/ns#"
   xmlns:dc="http://purl.org/dc/elements/1.1/"><sodipodi:namedview
     id="namedview15"
     pagecolor="#ffffff"
     bordercolor="#000000"
     borderopacity="0.25"
     inkscape:showpageshadow="2"
     inkscape:pageopacity="0.0"
     inkscape:pagecheckerboard="0"
     inkscape:deskcolor="#d1d1d1"
     showgrid="false"
     inkscape:zoom="0.74811169"
     inkscape:cx="606.86126"
     inkscape:cy="501.9304"
     inkscape:window-width="1920"
     inkscape:window-height="1017"
     inkscape:window-x="-8"
     inkscape:window-y="-8"
     inkscape:window-maximized="1"
     inkscape:current-layer="svg15" /><title
     id="title1">New Project</title><defs
     id="defs15"><linearGradient
       id="g1"
       x2="1"
       gradientUnits="userSpaceOnUse"
       gradientTransform="matrix(-36.753,19.84,-21.126,-39.135,110.621,53.26)"><stop
         offset="0"
         stop-color="#f99d1c"
         id="stop1" /><stop
         offset=".5"
         stop-color="#f37021"
         id="stop2" /><stop
         offset="1"
         stop-color="#f99d1c"
         id="stop3" /></linearGradient><linearGradient
       id="g2"
       x2="1"
       gradientUnits="userSpaceOnUse"
       gradientTransform="matrix(-53.963,-15.848,17.064,-58.1,119.227,71.111)"><stop
         offset="0"
         stop-color="#f99d1c"
         id="stop4" /><stop
         offset=".5"
         stop-color="#f37021"
         id="stop5" /><stop
         offset="1"
         stop-color="#f99d1c"
         id="stop6" /></linearGradient><linearGradient
       id="g3"
       x2="1"
       gradientUnits="userSpaceOnUse"
       gradientTransform="matrix(-52.901,-52.901,56.806,-56.806,118.699,89.628)"><stop
         offset="0"
         stop-color="#f99d1c"
         id="stop7" /><stop
         offset=".5"
         stop-color="#f37021"
         id="stop8" /><stop
         offset="1"
         stop-color="#f99d1c"
         id="stop9" /></linearGradient><linearGradient
       id="g4"
       x2="1"
       gradientUnits="userSpaceOnUse"
       gradientTransform="matrix(-39.081,-90.602,96.417,-41.589,111.784,108.491)"><stop
         offset="0"
         stop-color="#f99d1c"
         id="stop10" /><stop
         offset=".5"
         stop-color="#f37021"
         id="stop11" /><stop
         offset="1"
         stop-color="#f99d1c"
         id="stop12" /></linearGradient><linearGradient
       id="g5"
       x2="1"
       gradientUnits="userSpaceOnUse"
       gradientTransform="matrix(0,-126.374,134.479,0,92.24,126.373)"><stop
         offset="0"
         stop-color="#f99d1c"
         id="stop13" /><stop
         offset=".5"
         stop-color="#f37021"
         id="stop14" /><stop
         offset="1"
         stop-color="#f99d1c"
         id="stop15" /></linearGradient></defs><style
     id="style15">
		.s0 { fill: #86888b } 
		.s1 { fill: url(#g1) } 
		.s2 { fill: url(#g2) } 
		.s3 { fill: url(#g3) } 
		.s4 { fill: url(#g4) } 
		.s5 { fill: url(#g5) } 
	</style><metadata
     id="metadata15"><rdf:RDF><cc:Work
         rdf:about=""><dc:title>New Project</dc:title></cc:Work></rdf:RDF></metadata><path
     fill="#d64000"
     d="m 864.39399,135.4403 c 12.71007,12.68507 19.6769,29.66513 19.6769,47.71892 0,18.05378 -6.9918,35.03385 -19.65193,47.74391 a 67.42079,67.42079 0 0 1 -95.26308,0 67.0712,67.0712 0 0 1 -19.67687,-47.74391 c 0,-18.05379 6.99177,-35.03385 19.67687,-47.74392 a 67.121144,67.121144 0 0 1 47.69399,-19.8267 c 17.35461,0 34.50944,6.61723 47.74391,19.8267 h -0.17479 z M 135.37547,865.90712 a 67.670498,67.670498 0 0 1 0,-95.46286 67.196053,67.196053 0 0 1 47.71895,-19.85167 c 18.05378,0 35.03384,6.99178 47.71895,19.85167 a 67.670498,67.670498 0 0 1 0,95.46286 67.171085,67.171085 0 0 1 -47.69399,19.85166 c -18.07875,0 -35.0588,-6.9918 -47.74391,-19.85166 z m 513.84634,-725.2979 h -0.52441 a 59.305326,59.305326 0 0 1 -31.46302,-31.98742 58.38141,58.38141 0 0 1 0,-45.246833 59.08059,59.08059 0 0 1 54.51096,-36.457179 c 7.49119,0 15.35694,1.598124 22.52354,4.469755 a 59.355267,59.355267 0 0 1 31.96243,77.234257 59.180471,59.180471 0 0 1 -77.0095,31.98742 z m -320.8231,715.83402 c 7.69097,0 15.20715,1.59812 22.52353,4.46972 a 59.355267,59.355267 0 0 1 31.98743,77.23428 58.531236,58.531236 0 0 1 -31.96245,31.9874 58.35644,58.35644 0 0 1 -45.24684,0 59.355267,59.355267 0 0 1 -31.96246,-77.23426 59.105559,59.105559 0 0 1 54.486,-36.45714 z M 550.5627,51.938378 a 50.690446,50.690446 0 0 1 -48.24333,50.590582 h -2.32225 A 50.665477,50.665477 0 0 1 449.40657,51.938378 c -0.0256,-27.867254 22.69833,-50.5905497 50.59055,-50.5905497 27.86725,0 50.56558,22.8731217 50.56558,50.7653697 z M 449.38157,949.58381 c 0,-27.89225 22.72333,-50.59058 50.61555,-50.59058 27.86725,0 50.56558,22.69833 50.56558,50.59058 a 50.665477,50.665477 0 0 1 -50.56558,50.59059 50.665477,50.665477 0 0 1 -50.59055,-50.59059 z m -104.702,-824.53132 a 41.800892,41.800892 0 0 1 -32.18717,0 41.651066,41.651066 0 0 1 -22.87313,-22.87312 42.20042,42.20042 0 1 1 77.90849,-32.361974 c 4.3199,10.537606 4.3199,21.974167 0,32.361974 a 41.101712,41.101712 0 0 1 -22.84819,22.87312 z m 310.46026,751.4172 a 43.199246,43.199246 0 0 1 16.23094,-3.22121 c 5.5435,0 10.91218,1.07374 16.10607,3.22121 a 42.275333,42.275333 0 0 1 22.87315,55.23512 41.101712,41.101712 0 0 1 -22.87315,22.89809 42.275333,42.275333 0 0 1 -32.36197,0 41.101712,41.101712 0 0 1 -22.87313,-22.89809 42.275333,42.275333 0 0 1 22.87313,-55.23512 z M 206.86649,159.73675 c 12.88486,13.05966 13.23445,33.81027 0.72414,47.19454 l -0.72414,0.74913 c -13.23444,13.20948 -34.65929,13.20948 -47.69397,0 a 33.885188,33.885188 0 0 1 0,-47.94367 c 6.59225,-6.59225 15.18217,-9.81347 23.9219,-9.81347 8.76468,0 17.35462,3.22122 23.97183,9.81347 z m 585.68692,634.47959 c 6.44243,-6.61723 15.20712,-9.83845 23.77205,-9.83845 8.58992,0 17.32965,3.24619 23.97187,9.83845 6.41743,6.24267 9.81347,14.83256 9.81347,23.97184 a 33.68543,33.68543 0 1 1 -67.37086,0 c 0,-8.93952 3.5708,-17.52941 9.81347,-23.97184 z M 69.777562,368.01704 a 42.375214,42.375214 0 0 1 -22.873151,-55.2351 c 4.294962,-10.5376 12.335517,-18.60315 22.873151,-22.87311 5.368681,-2.14751 10.737363,-3.24619 16.280866,-3.24619 5.543474,0 10.887189,1.09868 16.081112,3.24619 a 42.52504,42.52504 0 0 1 22.87311,55.23509 41.101712,41.101712 0 0 1 -22.87311,22.87312 c -10.537638,4.29496 -21.974199,4.29496 -32.16222,0 z M 930.19169,633.67995 a 42.300304,42.300304 0 0 1 22.87316,55.23509 42.20042,42.20042 0 0 1 -77.93346,0 42.300304,42.300304 0 0 1 38.95423,-58.43135 c 16.45568,0 10.73739,1.04878 16.10607,3.19626 z M 1.1581677,501.0108 c 0,-27.86725 22.6983293,-50.59055 50.5905493,-50.59055 27.867281,0 50.565603,22.7233 50.565603,50.59055 A 50.665477,50.665477 0 0 1 51.748717,551.62635 50.665477,50.665477 0 0 1 1.1581677,501.0108 Z m 896.4967523,0 c 0,-27.86725 22.69833,-50.59055 50.56559,-50.59055 27.89225,0 50.59058,22.7233 50.59058,50.59055 a 50.665477,50.665477 0 0 1 -50.59058,50.61555 50.665477,50.665477 0 0 1 -50.56559,-50.59058 z M 31.172916,695.18268 a 59.055618,59.055618 0 0 1 32.01239,-77.23426 59.08059,59.08059 0 0 1 77.209294,32.01239 58.38141,58.38141 0 0 1 0,45.1969 59.105559,59.105559 0 0 1 -109.221684,0 z M 859.22507,351.56138 a 57.931937,57.931937 0 0 1 0,-45.04707 59.105559,59.105559 0 0 1 54.51096,-36.45719 c 23.22271,0 45.1969,13.75886 54.51096,36.45719 a 59.055618,59.055618 0 0 1 -31.98743,77.23425 59.105559,59.105559 0 0 1 -77.20929,-32.01239 z M 643.32872,644.41733 a 47.269466,47.269466 0 0 0 0,67.02125 c 18.57819,18.60315 48.44309,18.60315 67.02127,0 a 46.944846,46.944846 0 0 0 13.93362,-33.41074 c 0,-12.71006 -4.99414,-24.67102 -13.93362,-33.46068 a 46.77005,46.77005 0 0 0 -33.43572,-13.73388 47.943672,47.943672 0 0 0 -33.58555,13.73388 z M 248.34277,472.04483 A 37.455993,37.455993 0 0 1 221.87385,426.0988 c 2.69684,-9.63865 8.76472,-17.6792 17.52941,-22.87312 5.71829,-3.39601 12.16072,-4.99413 18.57819,-4.99413 6.44243,0 6.44243,0.34959 9.66365,1.24854 9.63868,2.69684 17.67924,8.76469 22.69834,17.5294 4.99413,8.73973 6.24267,18.77795 3.74558,28.59142 a 37.555879,37.555879 0 0 1 -45.94604,26.64368 l 0.19985,-0.1748 z m 483.6318,129.82248 a 37.25623,37.25623 0 0 1 -22.7233,-17.52941 c -4.99412,-8.73972 -6.24267,-18.77794 -3.74558,-28.61639 a 37.60582,37.60582 0 0 1 36.28235,-27.89221 c 6.44243,0 5.36868,0.19985 8.06553,0.89893 l 1.77291,0.54937 a 37.555879,37.555879 0 0 1 8.93951,68.81916 c -8.73973,4.99412 -18.77795,6.44243 -28.59142,3.74558 z M 229.21524,573.42572 a 30.289415,30.289415 0 0 1 19.47711,-36.45715 l 1.79788,-0.52441 a 30.214502,30.214502 0 0 1 36.80678,21.27503 c 2.14747,7.86576 1.07372,15.90632 -3.04642,22.87312 -3.92041,6.99177 -10.53765,11.9859 -18.22859,14.1334 -7.86576,2.1225 -15.73152,1.04876 -22.87315,-3.04642 a 29.240648,29.240648 0 0 1 -13.93361,-18.22861 z m 497.39065,-111.19436 -1.24854,-0.72414 a 30.089651,30.089651 0 0 1 -12.6851,-17.50443 30.089651,30.089651 0 1 1 36.80676,21.27499 c -7.66601,2.1225 -15.73152,0.87396 -22.87312,-3.04642 z m -386.94541,230.45426 -0.89893,0.89893 c -8.73975,8.73975 -23.22274,8.73975 -31.96245,0 a 22.59845,22.59845 0 1 1 38.60464,-15.90632 21.225064,21.225064 0 0 1 -5.74326,14.98243 z M 692.64579,307.41326 c 4.29494,4.29494 6.61723,10.01323 6.61723,16.08111 a 22.598451,22.598451 0 1 1 -45.1969,0 22.573479,22.573479 0 0 1 22.67335,-22.69833 c 6.09285,0 11.81112,2.32226 16.08112,6.61722 z M 461.01792,727.74443 c 3.94535,6.94185 4.99413,14.9824 3.04642,22.87313 -2.1475,7.84079 -6.99181,14.28322 -13.93364,18.22857 -6.99178,3.92041 -15.03233,4.99414 -22.89809,3.04642 a 30.16456,30.16456 0 0 1 -21.25003,-36.83173 c 2.14747,-7.86576 6.96681,-14.30819 13.93362,-18.22857 6.9918,-3.94537 15.00738,-5.0191 22.87311,-3.04642 7.86577,2.14746 14.1334,7.1416 18.22861,14.10844 v -0.1748 z M 538.402,273.97753 c -3.92042,-6.96683 -4.99413,-15.00736 -3.02145,-22.87312 2.14746,-7.86576 6.9668,-14.30819 13.93364,-18.2286 4.64452,-2.69682 9.83843,-3.94536 15.00736,-3.94536 5.19388,0 5.19388,0.37456 7.86575,1.07373 7.86577,2.14749 14.3082,6.9918 18.22858,14.1334 a 30.014738,30.014738 0 0 1 -33.7853,44.14815 29.040881,29.040881 0 0 1 -18.22858,-14.10844 z m 45.22187,436.41229 1.62309,0.87396 c 7.86576,4.99413 13.38427,12.71007 15.90632,21.82437 a 37.381083,37.381083 0 0 1 -26.46892,45.946 37.206289,37.206289 0 0 1 -28.59139,-3.74559 c -8.73975,-5.01909 -14.83259,-13.05965 -17.50443,-22.89808 a 37.30617,37.30617 0 0 1 3.74558,-28.61638 37.25623,37.25623 0 0 1 32.53677,-18.75299 c 6.41746,0 12.85989,1.77292 18.75298,4.99413 z M 444.76202,295.07775 a 37.555879,37.555879 0 0 1 -45.94603,-26.64372 37.381083,37.381083 0 0 1 36.10759,-47.19454 c 16.63045,0 31.8126,11.08698 36.28236,27.89222 a 37.381083,37.381083 0 0 1 -26.46888,45.94604 z m -121.90678,75.43637 c 26.09434,0 47.19454,-21.275 47.19454,-47.36937 a 47.294436,47.294436 0 0 0 -47.19454,-47.36933 c -26.09434,0 -47.19458,21.275 -47.19458,47.36933 0,26.09437 21.10024,47.36937 47.19458,47.36937 z"
     id="path2"
     style="stroke-width:24.9706" /></svg>
